<svg xmlns="http://www.w3.org/2000/svg" width="999.873" height="230.592" viewBox="0 0 6909.97 1593.59">
  <defs>
    <style>
      .cls-1 {
        fill: #dad9d7;
        fill-rule: evenodd;
      }
    </style>
  </defs>
  <path id="ka-modern-warfare" class="cls-1" d="M3899.36,6528.09c0-204.09-115.07-245.1-300.74-245.1h-416.8c-185.67,0-300.74,41.01-300.74,245.1v212.43c0,204.1,115.07,245.1,300.74,245.1h416.8c185.67,0,300.74-41,300.74-245.1V6528.09Zm-198.82,144.57c0,102.91-21.23,155.16-137.28,155.16H3217.18c-116.05,0-137.28-52.25-137.28-155.16v-76.71c0-93.13,25.35-155.15,149.06-155.15h322.52c123.71,0,149.06,62.02,149.06,155.15v76.71Zm1350.11,69.83V6526.13c0-87.14-19.45-144.46-61.19-180.41-43.48-37.43-113.67-54.86-220.9-54.86H4069.93v686.89h698.63c107.23,0,177.42-17.43,220.9-54.86C5031.2,6886.95,5050.65,6829.62,5050.65,6742.49Zm-192.93-62.94c0,103.66-37.21,140.4-142.19,140.4H4262.86V6442.76h452.67c104.98,0,142.19,36.74,142.19,140.41v96.38Zm1591.42,113.32h411.28c74.3,0,101.92,30.32,101.92,111.88v73h192.93V6849.82c0-115.55-56.03-135.43-108.54-144.99l-10.3-1.88v-2.86l9.68-2.28c45.18-10.65,73.99-28.13,90.67-55.01,14.83-23.9,21.44-57.15,21.44-107.82v-45.24c0-141.26-58.11-198.88-200.57-198.88H6256.21v686.89h192.93V6792.87Zm0-350.11h409.32c59.4,0,112.72,6.68,112.72,87.3v23.61c0,59.56-29.58,87.3-93.08,87.3H6449.14V6442.76Zm1860.51,534.99V6290.86H8116.71v517.29l-457.85-517.29H7339.38v686.89h192.94V6460.46l457.84,517.29h319.49ZM3159.56,7189.56l-371.4,686.89h214.79l63.84-125.88h457.14l67.76,125.88h213.88l-377.08-686.89H3159.56Zm-24.12,432.71,157.9-307.2,162.42,307.2H3135.44Zm1379.75-432.71H3869.73v686.89h192.93V7691.56h355.3c74.3,0,101.92,30.32,101.92,111.89v73h192.93V7750.02c0-115.55-56.02-135.43-108.53-144.99l-10.3-1.88v-4.37l9.67-2.28c45.18-10.64,73.99-28.12,90.67-55,14.83-23.9,21.44-57.15,21.44-107.82v-45.24C4715.76,7247.18,4657.65,7189.56,4515.19,7189.56Zm13.53,262.8c0,59.56-29.58,87.3-93.08,87.3H4062.66v-198.2H4416c59.4,0,112.72,6.67,112.72,87.3v23.6Zm1295.42-262.8-371.4,686.89h214.8l63.84-125.88h457.13l67.77,125.88h213.88l-377.09-686.89H5824.14Zm-24.11,432.71,157.9-307.2,162.42,307.2H5800.03Zm1445.95-432.71H6555.74v686.89h192.94V7691.56h400.08c74.3,0,101.92,30.32,101.92,111.89v73h192.93v-108.4c0-115.56-56.02-154.96-108.54-164.53l-10.3-1.87v-2.87l9.67-2.28c45.19-10.64,74-28.12,90.67-55,14.83-23.9,21.44-57.15,21.44-107.82v-45.24C7446.55,7247.18,7388.44,7189.56,7245.98,7189.56Zm13.54,262.8c0,59.56-29.58,87.3-93.08,87.3H6748.68v-198.2h398.11c59.4,0,112.73,6.67,112.73,87.3v23.6Zm493.97,138.89h530.33v-122.4H7753.49V7329.66h556.78v-140.1H7560.55v686.89h750.44v-146h-557.5v-139.2ZM2154.6,6699.9l-375.49-401.51H1585V6985.2h186.8V6574.78l371.82,404.18,390.98-404.18V6985.2h186.8V6298.39H2527.36Zm380,900.3-390.98-404.19L1771.8,7600.2V7189.78H1585v686.8h194.11l375.49-401.51,372.76,401.51H2721.4v-686.8H2534.6V7600.2Zm2510.48-264.64h524.44v-146H4852.14v686.89h192.94V7633.54h329.25l75.92-140.1H5045.08V7335.56Zm1003.74-503.81H5420.28V6692.56h519.98l66.33-122.4H5420.28v-139.2h615.77v-140.1h-808.7v686.89h821.47v-146Zm2372.83,897.28h0.32a72.6,72.6,0,0,1,73.01,72.83c0,41.15-32.39,73.14-73.33,73.14-40.62,0-73.66-31.99-73.66-73.14C8347.99,7761.43,8381.03,7729.03,8421.65,7729.03Zm0.32,134.66c33.04,0.37,59.47-27.24,59.47-61.49,0-34.32-26.43-61.82-59.47-61.82h-0.32c-32.72,0-59.46,27.5-59.46,61.48C8362.19,7836.45,8388.93,7863.69,8421.97,7863.69Zm21.82-96.5c4.94,3.57,7.57,9.11,7.57,16.87,0,10.66-7.26,17.13-16.2,19.77v0.57c7.28,1.36,12.28,7.82,13.89,19.78,2.01,12.66,3.98,17.5,5.32,20.08h-13.92c-1.95-2.58-3.92-10.03-5.62-20.75-1.98-10.35-7.27-14.2-17.81-14.2h-9.24v34.95h-13.23v-81.17a144.281,144.281,0,0,1,23.47-1.97C8430.56,7761.12,8438.85,7763.67,8443.79,7767.19Zm-36.01,4.59v27.53h9.5c10.94,0,20.21-3.93,20.21-13.96,0-7.11-5.26-14.2-20.21-14.2A65.38,65.38,0,0,0,8407.78,7771.78Z" transform="translate(-1585 -6283)"/>
</svg>
